<svg width="1920" height="942" xmlns="http://www.w3.org/2000/svg"><g><path d="M-133,-122L-128,357L-79,276Z" fill="#e3fdc5" stroke="#e3fdc5" fill-opacity="1" stroke-opacity="1"/><path d="M-133,-122L-79,276L-28,97Z" fill="#effdc3" stroke="#effdc3" fill-opacity="1" stroke-opacity="1"/><path d="M-133,-122L-28,97L34,-64Z" fill="#fafdc1" stroke="#fafdc1" fill-opacity="1" stroke-opacity="1"/><path d="M-133,-122L34,-64L652,-128Z" fill="#e6f6c2" stroke="#e6f6c2" fill-opacity="1" stroke-opacity="1"/><path d="M34,-64L-28,97L123,77Z" fill="#edfac3" stroke="#edfac3" fill-opacity="1" stroke-opacity="1"/><path d="M34,-64L123,77L190,38Z" fill="#e9f7c4" stroke="#e9f7c4" fill-opacity="1" stroke-opacity="1"/><path d="M34,-64L190,38L281,-20Z" fill="#e8f6c3" stroke="#e8f6c3" fill-opacity="1" stroke-opacity="1"/><path d="M34,-64L281,-20L336,-39Z" fill="#e4f4c3" stroke="#e4f4c3" fill-opacity="1" stroke-opacity="1"/><path d="M34,-64L336,-39L652,-128Z" fill="#d9f0c3" stroke="#d9f0c3" fill-opacity="1" stroke-opacity="1"/><path d="M281,-20L190,38L343,80Z" fill="#d9f2c5" stroke="#d9f2c5" fill-opacity="1" stroke-opacity="1"/><path d="M281,-20L343,80L336,-39Z" fill="#daf1c5" stroke="#daf1c5" fill-opacity="1" stroke-opacity="1"/><path d="M336,-39L343,80L494,-52Z" fill="#d5efc5" stroke="#d5efc5" fill-opacity="1" stroke-opacity="1"/><path d="M336,-39L494,-52L652,-128Z" fill="#ccebc5" stroke="#ccebc5" fill-opacity="1" stroke-opacity="1"/><path d="M494,-52L343,80L549,23Z" fill="#ccecc6" stroke="#ccecc6" fill-opacity="1" stroke-opacity="1"/><path d="M494,-52L549,23L652,-128Z" fill="#c6e9c6" stroke="#c6e9c6" fill-opacity="1" stroke-opacity="1"/><path d="M652,-128L549,23L658,26Z" fill="#c1e7c7" stroke="#c1e7c7" fill-opacity="1" stroke-opacity="1"/><path d="M652,-128L658,26L859,-79Z" fill="#bae1c6" stroke="#bae1c6" fill-opacity="1" stroke-opacity="1"/><path d="M652,-128L859,-79L941,-83Z" fill="#b4dbc5" stroke="#b4dbc5" fill-opacity="1" stroke-opacity="1"/><path d="M652,-128L941,-83L1253,-78Z" fill="#abd3c5" stroke="#abd3c5" fill-opacity="1" stroke-opacity="1"/><path d="M652,-128L1253,-78L1876,-90Z" fill="#97c0c4" stroke="#97c0c4" fill-opacity="1" stroke-opacity="1"/><path d="M859,-79L658,26L770,115Z" fill="#b4dec7" stroke="#b4dec7" fill-opacity="1" stroke-opacity="1"/><path d="M859,-79L770,115L992,57Z" fill="#abd8c7" stroke="#abd8c7" fill-opacity="1" stroke-opacity="1"/><path d="M859,-79L992,57L941,-83Z" fill="#acd5c6" stroke="#acd5c6" fill-opacity="1" stroke-opacity="1"/><path d="M941,-83L992,57L1117,-47Z" fill="#a7cfc6" stroke="#a7cfc6" fill-opacity="1" stroke-opacity="1"/><path d="M941,-83L1117,-47L1253,-78Z" fill="#a1cac5" stroke="#a1cac5" fill-opacity="1" stroke-opacity="1"/><path d="M1117,-47L992,57L1109,77Z" fill="#9ecbc7" stroke="#9ecbc7" fill-opacity="1" stroke-opacity="1"/><path d="M1117,-47L1109,77L1253,-78Z" fill="#9ec7c6" stroke="#9ec7c6" fill-opacity="1" stroke-opacity="1"/><path d="M1253,-78L1109,77L1269,135Z" fill="#93c3c7" stroke="#93c3c7" fill-opacity="1" stroke-opacity="1"/><path d="M1253,-78L1269,135L1395,-54Z" fill="#94bec6" stroke="#94bec6" fill-opacity="1" stroke-opacity="1"/><path d="M1253,-78L1395,-54L1575,-64Z" fill="#8db7c4" stroke="#8db7c4" fill-opacity="1" stroke-opacity="1"/><path d="M1253,-78L1575,-64L1876,-90Z" fill="#83aec4" stroke="#83aec4" fill-opacity="1" stroke-opacity="1"/><path d="M1395,-54L1269,135L1390,123Z" fill="#86bac7" stroke="#86bac7" fill-opacity="1" stroke-opacity="1"/><path d="M1395,-54L1390,123L1584,119Z" fill="#80b4c6" stroke="#80b4c6" fill-opacity="1" stroke-opacity="1"/><path d="M1395,-54L1584,119L1575,-64Z" fill="#86b1c5" stroke="#86b1c5" fill-opacity="1" stroke-opacity="1"/><path d="M1575,-64L1584,119L1696,-37Z" fill="#7fabc5" stroke="#7fabc5" fill-opacity="1" stroke-opacity="1"/><path d="M1575,-64L1696,-37L1876,-90Z" fill="#80a5c4" stroke="#80a5c4" fill-opacity="1" stroke-opacity="1"/><path d="M1696,-37L1584,119L1720,25Z" fill="#7aa7c5" stroke="#7aa7c5" fill-opacity="1" stroke-opacity="1"/><path d="M1696,-37L1720,25L1876,-90Z" fill="#80a2c4" stroke="#80a2c4" fill-opacity="1" stroke-opacity="1"/><path d="M1876,-90L1720,25L1909,123Z" fill="#7d9dc5" stroke="#7d9dc5" fill-opacity="1" stroke-opacity="1"/><path d="M1876,-90L1909,123L2043,52Z" fill="#7b96c5" stroke="#7b96c5" fill-opacity="1" stroke-opacity="1"/><path d="M1876,-90L2043,52L2064,-78Z" fill="#8094c4" stroke="#8094c4" fill-opacity="1" stroke-opacity="1"/><path d="M2064,-78L2043,52L2065,396Z" fill="#6b8ec6" stroke="#6b8ec6" fill-opacity="1" stroke-opacity="1"/><path d="M2064,-78L2065,396L2084,1181Z" fill="#2e6ec9" stroke="#2e6ec9" fill-opacity="1" stroke-opacity="1"/><path d="M-28,97L-79,276L95,257Z" fill="#d4f8c6" stroke="#d4f8c6" fill-opacity="1" stroke-opacity="1"/><path d="M-28,97L95,257L123,77Z" fill="#d9f7c5" stroke="#d9f7c5" fill-opacity="1" stroke-opacity="1"/><path d="M123,77L95,257L266,250Z" fill="#c8f3c7" stroke="#c8f3c7" fill-opacity="1" stroke-opacity="1"/><path d="M123,77L266,250L190,38Z" fill="#d2f3c6" stroke="#d2f3c6" fill-opacity="1" stroke-opacity="1"/><path d="M190,38L266,250L343,80Z" fill="#cbf1c7" stroke="#cbf1c7" fill-opacity="1" stroke-opacity="1"/><path d="M343,80L266,250L423,243Z" fill="#b9edc8" stroke="#b9edc8" fill-opacity="1" stroke-opacity="1"/><path d="M343,80L423,243L549,23Z" fill="#beebc8" stroke="#beebc8" fill-opacity="1" stroke-opacity="1"/><path d="M549,23L423,243L579,250Z" fill="#ade8ca" stroke="#ade8ca" fill-opacity="1" stroke-opacity="1"/><path d="M549,23L579,250L658,26Z" fill="#b3e6c9" stroke="#b3e6c9" fill-opacity="1" stroke-opacity="1"/><path d="M658,26L579,250L728,244Z" fill="#a2e2cb" stroke="#a2e2cb" fill-opacity="1" stroke-opacity="1"/><path d="M658,26L728,244L770,115Z" fill="#a5dfca" stroke="#a5dfca" fill-opacity="1" stroke-opacity="1"/><path d="M770,115L728,244L883,220Z" fill="#95daca" stroke="#95daca" fill-opacity="1" stroke-opacity="1"/><path d="M770,115L883,220L992,57Z" fill="#9ad6c9" stroke="#9ad6c9" fill-opacity="1" stroke-opacity="1"/><path d="M992,57L883,220L984,250Z" fill="#8ed0ca" stroke="#8ed0ca" fill-opacity="1" stroke-opacity="1"/><path d="M992,57L984,250L1102,222Z" fill="#89ccca" stroke="#89ccca" fill-opacity="1" stroke-opacity="1"/><path d="M992,57L1102,222L1109,77Z" fill="#90cac9" stroke="#90cac9" fill-opacity="1" stroke-opacity="1"/><path d="M1109,77L1102,222L1243,171Z" fill="#84c5c9" stroke="#84c5c9" fill-opacity="1" stroke-opacity="1"/><path d="M1109,77L1243,171L1269,135Z" fill="#85c2c8" stroke="#85c2c8" fill-opacity="1" stroke-opacity="1"/><path d="M1269,135L1243,171L1369,169Z" fill="#7bbcc9" stroke="#7bbcc9" fill-opacity="1" stroke-opacity="1"/><path d="M1269,135L1369,169L1390,123Z" fill="#7ab9c8" stroke="#7ab9c8" fill-opacity="1" stroke-opacity="1"/><path d="M1390,123L1369,169L1584,119Z" fill="#74b3c8" stroke="#74b3c8" fill-opacity="1" stroke-opacity="1"/><path d="M1584,119L1369,169L1554,322Z" fill="#66afc9" stroke="#66afc9" fill-opacity="1" stroke-opacity="1"/><path d="M1584,119L1554,322L1611,269Z" fill="#5ba9ca" stroke="#5ba9ca" fill-opacity="1" stroke-opacity="1"/><path d="M1584,119L1611,269L1677,189Z" fill="#60a7c8" stroke="#60a7c8" fill-opacity="1" stroke-opacity="1"/><path d="M1584,119L1677,189L1720,25Z" fill="#6da6c7" stroke="#6da6c7" fill-opacity="1" stroke-opacity="1"/><path d="M1720,25L1677,189L1909,123Z" fill="#6d9fc7" stroke="#6d9fc7" fill-opacity="1" stroke-opacity="1"/><path d="M1909,123L1677,189L1889,272Z" fill="#609bc8" stroke="#609bc8" fill-opacity="1" stroke-opacity="1"/><path d="M1909,123L1889,272L2007,206Z" fill="#5f94c8" stroke="#5f94c8" fill-opacity="1" stroke-opacity="1"/><path d="M1909,123L2007,206L2043,52Z" fill="#6b92c7" stroke="#6b92c7" fill-opacity="1" stroke-opacity="1"/><path d="M2043,52L2007,206L2065,396Z" fill="#5c8ec8" stroke="#5c8ec8" fill-opacity="1" stroke-opacity="1"/><path d="M-79,276L-128,357L-30,474Z" fill="#c1f1c7" stroke="#c1f1c7" fill-opacity="1" stroke-opacity="1"/><path d="M-79,276L-30,474L131,330Z" fill="#baf0c8" stroke="#baf0c8" fill-opacity="1" stroke-opacity="1"/><path d="M-79,276L131,330L95,257Z" fill="#c3f6c8" stroke="#c3f6c8" fill-opacity="1" stroke-opacity="1"/><path d="M95,257L131,330L232,315Z" fill="#b7f2c9" stroke="#b7f2c9" fill-opacity="1" stroke-opacity="1"/><path d="M95,257L232,315L266,250Z" fill="#b8f1c9" stroke="#b8f1c9" fill-opacity="1" stroke-opacity="1"/><path d="M266,250L232,315L323,325Z" fill="#aeeeca" stroke="#aeeeca" fill-opacity="1" stroke-opacity="1"/><path d="M266,250L323,325L423,243Z" fill="#acecca" stroke="#acecca" fill-opacity="1" stroke-opacity="1"/><path d="M423,243L323,325L550,382Z" fill="#9de8cc" stroke="#9de8cc" fill-opacity="1" stroke-opacity="1"/><path d="M423,243L550,382L579,250Z" fill="#99e6cc" stroke="#99e6cc" fill-opacity="1" stroke-opacity="1"/><path d="M579,250L550,382L626,362Z" fill="#8de1cd" stroke="#8de1cd" fill-opacity="1" stroke-opacity="1"/><path d="M579,250L626,362L728,244Z" fill="#8fe1cd" stroke="#8fe1cd" fill-opacity="1" stroke-opacity="1"/><path d="M728,244L626,362L770,318Z" fill="#88ddcd" stroke="#88ddcd" fill-opacity="1" stroke-opacity="1"/><path d="M728,244L770,318L883,220Z" fill="#8ad9cc" stroke="#8ad9cc" fill-opacity="1" stroke-opacity="1"/><path d="M883,220L770,318L958,413Z" fill="#7cd3cd" stroke="#7cd3cd" fill-opacity="1" stroke-opacity="1"/><path d="M883,220L958,413L984,250Z" fill="#7bcfcc" stroke="#7bcfcc" fill-opacity="1" stroke-opacity="1"/><path d="M984,250L958,413L1141,403Z" fill="#6cc4cc" stroke="#6cc4cc" fill-opacity="1" stroke-opacity="1"/><path d="M984,250L1141,403L1102,222Z" fill="#72c7cc" stroke="#72c7cc" fill-opacity="1" stroke-opacity="1"/><path d="M1102,222L1141,403L1270,359Z" fill="#67bfcc" stroke="#67bfcc" fill-opacity="1" stroke-opacity="1"/><path d="M1102,222L1270,359L1243,171Z" fill="#71c0cb" stroke="#71c0cb" fill-opacity="1" stroke-opacity="1"/><path d="M1243,171L1270,359L1369,169Z" fill="#6ebbca" stroke="#6ebbca" fill-opacity="1" stroke-opacity="1"/><path d="M1369,169L1270,359L1459,363Z" fill="#5fb6cb" stroke="#5fb6cb" fill-opacity="1" stroke-opacity="1"/><path d="M1369,169L1459,363L1554,322Z" fill="#5bb0cb" stroke="#5bb0cb" fill-opacity="1" stroke-opacity="1"/><path d="M1611,269L1554,322L1718,320Z" fill="#4da5cb" stroke="#4da5cb" fill-opacity="1" stroke-opacity="1"/><path d="M1611,269L1718,320L1677,189Z" fill="#55a4ca" stroke="#55a4ca" fill-opacity="1" stroke-opacity="1"/><path d="M1677,189L1718,320L1889,272Z" fill="#559eca" stroke="#559eca" fill-opacity="1" stroke-opacity="1"/><path d="M1889,272L1718,320L1822,431Z" fill="#4796cb" stroke="#4796cb" fill-opacity="1" stroke-opacity="1"/><path d="M1889,272L1822,431L2065,396Z" fill="#448bca" stroke="#448bca" fill-opacity="1" stroke-opacity="1"/><path d="M1889,272L2065,396L2007,206Z" fill="#5090ca" stroke="#5090ca" fill-opacity="1" stroke-opacity="1"/><path d="M-128,357L-91,1131L-78,944Z" fill="#7fb0c4" stroke="#7fb0c4" fill-opacity="1" stroke-opacity="1"/><path d="M-128,357L-78,944L-24,684Z" fill="#92c5c6" stroke="#92c5c6" fill-opacity="1" stroke-opacity="1"/><path d="M-128,357L-24,684L-30,474Z" fill="#a9dcc7" stroke="#a9dcc7" fill-opacity="1" stroke-opacity="1"/><path d="M131,330L-30,474L99,546Z" fill="#a7e0c8" stroke="#a7e0c8" fill-opacity="1" stroke-opacity="1"/><path d="M131,330L99,546L222,491Z" fill="#9fddc8" stroke="#9fddc8" fill-opacity="1" stroke-opacity="1"/><path d="M131,330L222,491L232,315Z" fill="#a7e7c9" stroke="#a7e7c9" fill-opacity="1" stroke-opacity="1"/><path d="M232,315L222,491L323,325Z" fill="#a2e5ca" stroke="#a2e5ca" fill-opacity="1" stroke-opacity="1"/><path d="M323,325L222,491L418,555Z" fill="#90d6ca" stroke="#90d6ca" fill-opacity="1" stroke-opacity="1"/><path d="M323,325L418,555L550,382Z" fill="#8cd8cb" stroke="#8cd8cb" fill-opacity="1" stroke-opacity="1"/><path d="M550,382L418,555L554,578Z" fill="#79c9cb" stroke="#79c9cb" fill-opacity="1" stroke-opacity="1"/><path d="M550,382L554,578L679,504Z" fill="#74c9cc" stroke="#74c9cc" fill-opacity="1" stroke-opacity="1"/><path d="M550,382L679,504L626,362Z" fill="#7dd2cd" stroke="#7dd2cd" fill-opacity="1" stroke-opacity="1"/><path d="M626,362L679,504L770,318Z" fill="#7bd2cd" stroke="#7bd2cd" fill-opacity="1" stroke-opacity="1"/><path d="M770,318L679,504L807,485Z" fill="#71c8cc" stroke="#71c8cc" fill-opacity="1" stroke-opacity="1"/><path d="M770,318L807,485L958,413Z" fill="#6fc7cc" stroke="#6fc7cc" fill-opacity="1" stroke-opacity="1"/><path d="M958,413L807,485L1005,568Z" fill="#5db6cc" stroke="#5db6cc" fill-opacity="1" stroke-opacity="1"/><path d="M958,413L1005,568L1070,470Z" fill="#59b1cb" stroke="#59b1cb" fill-opacity="1" stroke-opacity="1"/><path d="M958,413L1070,470L1141,403Z" fill="#5eb7cc" stroke="#5eb7cc" fill-opacity="1" stroke-opacity="1"/><path d="M1141,403L1070,470L1249,528Z" fill="#52abcb" stroke="#52abcb" fill-opacity="1" stroke-opacity="1"/><path d="M1141,403L1249,528L1270,359Z" fill="#53accb" stroke="#53accb" fill-opacity="1" stroke-opacity="1"/><path d="M1270,359L1249,528L1459,363Z" fill="#4fa8cb" stroke="#4fa8cb" fill-opacity="1" stroke-opacity="1"/><path d="M1459,363L1249,528L1475,533Z" fill="#419bca" stroke="#419bca" fill-opacity="1" stroke-opacity="1"/><path d="M1459,363L1475,533L1524,495Z" fill="#3d97ca" stroke="#3d97ca" fill-opacity="1" stroke-opacity="1"/><path d="M1459,363L1524,495L1554,322Z" fill="#46a0cb" stroke="#46a0cb" fill-opacity="1" stroke-opacity="1"/><path d="M1554,322L1524,495L1690,499Z" fill="#3a95ca" stroke="#3a95ca" fill-opacity="1" stroke-opacity="1"/><path d="M1554,322L1690,499L1718,320Z" fill="#4199ca" stroke="#4199ca" fill-opacity="1" stroke-opacity="1"/><path d="M1718,320L1690,499L1822,431Z" fill="#3c8fca" stroke="#3c8fca" fill-opacity="1" stroke-opacity="1"/><path d="M1822,431L1690,499L1879,508Z" fill="#3282ca" stroke="#3282ca" fill-opacity="1" stroke-opacity="1"/><path d="M1822,431L1879,508L2065,396Z" fill="#3780c9" stroke="#3780c9" fill-opacity="1" stroke-opacity="1"/><path d="M2065,396L1879,508L2018,523Z" fill="#3277c9" stroke="#3277c9" fill-opacity="1" stroke-opacity="1"/><path d="M2065,396L2018,523L2052,725Z" fill="#2769c8" stroke="#2769c8" fill-opacity="1" stroke-opacity="1"/><path d="M2065,396L2052,725L2084,1181Z" fill="#0446c7" stroke="#0446c7" fill-opacity="1" stroke-opacity="1"/><path d="M-30,474L-24,684L99,546Z" fill="#99d0c7" stroke="#99d0c7" fill-opacity="1" stroke-opacity="1"/><path d="M99,546L-24,684L112,699Z" fill="#89c4c7" stroke="#89c4c7" fill-opacity="1" stroke-opacity="1"/><path d="M99,546L112,699L169,654Z" fill="#85c3c7" stroke="#85c3c7" fill-opacity="1" stroke-opacity="1"/><path d="M99,546L169,654L222,491Z" fill="#8dccc8" stroke="#8dccc8" fill-opacity="1" stroke-opacity="1"/><path d="M222,491L169,654L418,555Z" fill="#83c8c9" stroke="#83c8c9" fill-opacity="1" stroke-opacity="1"/><path d="M418,555L169,654L423,644Z" fill="#75bec9" stroke="#75bec9" fill-opacity="1" stroke-opacity="1"/><path d="M418,555L423,644L554,578Z" fill="#6ebeca" stroke="#6ebeca" fill-opacity="1" stroke-opacity="1"/><path d="M554,578L423,644L479,716Z" fill="#64b5ca" stroke="#64b5ca" fill-opacity="1" stroke-opacity="1"/><path d="M554,578L479,716L620,684Z" fill="#5cb1cb" stroke="#5cb1cb" fill-opacity="1" stroke-opacity="1"/><path d="M554,578L620,684L679,504Z" fill="#62b9cc" stroke="#62b9cc" fill-opacity="1" stroke-opacity="1"/><path d="M679,504L620,684L803,685Z" fill="#56afcb" stroke="#56afcb" fill-opacity="1" stroke-opacity="1"/><path d="M679,504L803,685L807,485Z" fill="#5db5cb" stroke="#5db5cb" fill-opacity="1" stroke-opacity="1"/><path d="M807,485L803,685L1005,568Z" fill="#52accb" stroke="#52accb" fill-opacity="1" stroke-opacity="1"/><path d="M1005,568L803,685L984,728Z" fill="#429ccb" stroke="#429ccb" fill-opacity="1" stroke-opacity="1"/><path d="M1005,568L984,728L1119,673Z" fill="#3c96ca" stroke="#3c96ca" fill-opacity="1" stroke-opacity="1"/><path d="M1005,568L1119,673L1070,470Z" fill="#47a1cb" stroke="#47a1cb" fill-opacity="1" stroke-opacity="1"/><path d="M1070,470L1119,673L1249,528Z" fill="#449ecb" stroke="#449ecb" fill-opacity="1" stroke-opacity="1"/><path d="M1249,528L1119,673L1246,672Z" fill="#3690ca" stroke="#3690ca" fill-opacity="1" stroke-opacity="1"/><path d="M1249,528L1246,672L1384,696Z" fill="#2f8aca" stroke="#2f8aca" fill-opacity="1" stroke-opacity="1"/><path d="M1249,528L1384,696L1475,533Z" fill="#318cca" stroke="#318cca" fill-opacity="1" stroke-opacity="1"/><path d="M1475,533L1384,696L1596,642Z" fill="#237fc9" stroke="#237fc9" fill-opacity="1" stroke-opacity="1"/><path d="M1475,533L1596,642L1524,495Z" fill="#2b86ca" stroke="#2b86ca" fill-opacity="1" stroke-opacity="1"/><path d="M1524,495L1596,642L1690,499Z" fill="#2884c9" stroke="#2884c9" fill-opacity="1" stroke-opacity="1"/><path d="M1690,499L1596,642L1731,641Z" fill="#2078c9" stroke="#2078c9" fill-opacity="1" stroke-opacity="1"/><path d="M1690,499L1731,641L1841,636Z" fill="#2074c9" stroke="#2074c9" fill-opacity="1" stroke-opacity="1"/><path d="M1690,499L1841,636L1879,508Z" fill="#2777c9" stroke="#2777c9" fill-opacity="1" stroke-opacity="1"/><path d="M1879,508L1841,636L2018,523Z" fill="#2670c9" stroke="#2670c9" fill-opacity="1" stroke-opacity="1"/><path d="M2018,523L1841,636L2052,725Z" fill="#1a61c8" stroke="#1a61c8" fill-opacity="1" stroke-opacity="1"/><path d="M-24,684L-78,944L-22,882Z" fill="#7aaac4" stroke="#7aaac4" fill-opacity="1" stroke-opacity="1"/><path d="M-24,684L-22,882L64,770Z" fill="#78b1c5" stroke="#78b1c5" fill-opacity="1" stroke-opacity="1"/><path d="M-24,684L64,770L112,699Z" fill="#7eb9c6" stroke="#7eb9c6" fill-opacity="1" stroke-opacity="1"/><path d="M112,699L64,770L238,819Z" fill="#70afc6" stroke="#70afc6" fill-opacity="1" stroke-opacity="1"/><path d="M112,699L238,819L169,654Z" fill="#73b3c7" stroke="#73b3c7" fill-opacity="1" stroke-opacity="1"/><path d="M169,654L238,819L423,644Z" fill="#6db3c8" stroke="#6db3c8" fill-opacity="1" stroke-opacity="1"/><path d="M423,644L238,819L420,809Z" fill="#5da8c8" stroke="#5da8c8" fill-opacity="1" stroke-opacity="1"/><path d="M423,644L420,809L479,716Z" fill="#5cabc9" stroke="#5cabc9" fill-opacity="1" stroke-opacity="1"/><path d="M479,716L420,809L574,772Z" fill="#51a3c9" stroke="#51a3c9" fill-opacity="1" stroke-opacity="1"/><path d="M479,716L574,772L620,684Z" fill="#52a7ca" stroke="#52a7ca" fill-opacity="1" stroke-opacity="1"/><path d="M620,684L574,772L640,788Z" fill="#49a1ca" stroke="#49a1ca" fill-opacity="1" stroke-opacity="1"/><path d="M620,684L640,788L803,685Z" fill="#48a2cb" stroke="#48a2cb" fill-opacity="1" stroke-opacity="1"/><path d="M803,685L640,788L794,868Z" fill="#3b95ca" stroke="#3b95ca" fill-opacity="1" stroke-opacity="1"/><path d="M803,685L794,868L954,789Z" fill="#348eca" stroke="#348eca" fill-opacity="1" stroke-opacity="1"/><path d="M803,685L954,789L984,728Z" fill="#3892ca" stroke="#3892ca" fill-opacity="1" stroke-opacity="1"/><path d="M984,728L954,789L1150,786Z" fill="#2b86c9" stroke="#2b86c9" fill-opacity="1" stroke-opacity="1"/><path d="M984,728L1150,786L1119,673Z" fill="#2d88ca" stroke="#2d88ca" fill-opacity="1" stroke-opacity="1"/><path d="M1119,673L1150,786L1246,672Z" fill="#2a85ca" stroke="#2a85ca" fill-opacity="1" stroke-opacity="1"/><path d="M1246,672L1150,786L1331,844Z" fill="#1d79c9" stroke="#1d79c9" fill-opacity="1" stroke-opacity="1"/><path d="M1246,672L1331,844L1384,696Z" fill="#1d78c9" stroke="#1d78c9" fill-opacity="1" stroke-opacity="1"/><path d="M1384,696L1331,844L1432,829Z" fill="#106dc9" stroke="#106dc9" fill-opacity="1" stroke-opacity="1"/><path d="M1384,696L1432,829L1596,642Z" fill="#1572c9" stroke="#1572c9" fill-opacity="1" stroke-opacity="1"/><path d="M1596,642L1432,829L1602,813Z" fill="#0a67c8" stroke="#0a67c8" fill-opacity="1" stroke-opacity="1"/><path d="M1596,642L1602,813L1731,785Z" fill="#0863c8" stroke="#0863c8" fill-opacity="1" stroke-opacity="1"/><path d="M1596,642L1731,785L1731,641Z" fill="#116ac8" stroke="#116ac8" fill-opacity="1" stroke-opacity="1"/><path d="M1731,641L1731,785L1841,636Z" fill="#1165c8" stroke="#1165c8" fill-opacity="1" stroke-opacity="1"/><path d="M1841,636L1731,785L1908,843Z" fill="#0657c7" stroke="#0657c7" fill-opacity="1" stroke-opacity="1"/><path d="M1841,636L1908,843L2052,725Z" fill="#0953c8" stroke="#0953c8" fill-opacity="1" stroke-opacity="1"/><path d="M2052,725L1908,843L2027,866Z" fill="#0044c7" stroke="#0044c7" fill-opacity="1" stroke-opacity="1"/><path d="M2052,725L2027,866L2045,924Z" fill="#003dc6" stroke="#003dc6" fill-opacity="1" stroke-opacity="1"/><path d="M2052,725L2045,924L2084,1181Z" fill="#002dc6" stroke="#002dc6" fill-opacity="1" stroke-opacity="1"/><path d="M-22,882L-78,944L68,997Z" fill="#7899c4" stroke="#7899c4" fill-opacity="1" stroke-opacity="1"/><path d="M-22,882L68,997L64,770Z" fill="#74a1c5" stroke="#74a1c5" fill-opacity="1" stroke-opacity="1"/><path d="M64,770L68,997L186,959Z" fill="#6e9ac5" stroke="#6e9ac5" fill-opacity="1" stroke-opacity="1"/><path d="M64,770L186,959L238,819Z" fill="#69a1c6" stroke="#69a1c6" fill-opacity="1" stroke-opacity="1"/><path d="M238,819L186,959L326,959Z" fill="#6195c6" stroke="#6195c6" fill-opacity="1" stroke-opacity="1"/><path d="M238,819L326,959L420,809Z" fill="#5b9ac7" stroke="#5b9ac7" fill-opacity="1" stroke-opacity="1"/><path d="M420,809L326,959L533,1027Z" fill="#528cc8" stroke="#528cc8" fill-opacity="1" stroke-opacity="1"/><path d="M420,809L533,1027L574,772Z" fill="#4b93c9" stroke="#4b93c9" fill-opacity="1" stroke-opacity="1"/><path d="M574,772L533,1027L695,937Z" fill="#4389c9" stroke="#4389c9" fill-opacity="1" stroke-opacity="1"/><path d="M574,772L695,937L640,788Z" fill="#4094ca" stroke="#4094ca" fill-opacity="1" stroke-opacity="1"/><path d="M640,788L695,937L794,868Z" fill="#3b8bca" stroke="#3b8bca" fill-opacity="1" stroke-opacity="1"/><path d="M794,868L695,937L781,1004Z" fill="#387dc9" stroke="#387dc9" fill-opacity="1" stroke-opacity="1"/><path d="M794,868L781,1004L981,1008Z" fill="#3274c9" stroke="#3274c9" fill-opacity="1" stroke-opacity="1"/><path d="M794,868L981,1008L954,789Z" fill="#2e7bc9" stroke="#2e7bc9" fill-opacity="1" stroke-opacity="1"/><path d="M954,789L981,1008L1150,786Z" fill="#2778c9" stroke="#2778c9" fill-opacity="1" stroke-opacity="1"/><path d="M1150,786L981,1008L1102,1027Z" fill="#2369c8" stroke="#2369c8" fill-opacity="1" stroke-opacity="1"/><path d="M1150,786L1102,1027L1294,997Z" fill="#1d63c8" stroke="#1d63c8" fill-opacity="1" stroke-opacity="1"/><path d="M1150,786L1294,997L1331,844Z" fill="#1868c8" stroke="#1868c8" fill-opacity="1" stroke-opacity="1"/><path d="M1331,844L1294,997L1409,980Z" fill="#1258c8" stroke="#1258c8" fill-opacity="1" stroke-opacity="1"/><path d="M1331,844L1409,980L1432,829Z" fill="#0f5ec8" stroke="#0f5ec8" fill-opacity="1" stroke-opacity="1"/><path d="M1432,829L1409,980L1602,813Z" fill="#095ac8" stroke="#095ac8" fill-opacity="1" stroke-opacity="1"/><path d="M1602,813L1409,980L1629,1023Z" fill="#054cc7" stroke="#054cc7" fill-opacity="1" stroke-opacity="1"/><path d="M1602,813L1629,1023L1733,922Z" fill="#0049c7" stroke="#0049c7" fill-opacity="1" stroke-opacity="1"/><path d="M1602,813L1733,922L1731,785Z" fill="#0053c7" stroke="#0053c7" fill-opacity="1" stroke-opacity="1"/><path d="M1731,785L1733,922L1908,843Z" fill="#004bc7" stroke="#004bc7" fill-opacity="1" stroke-opacity="1"/><path d="M1908,843L1733,922L1831,993Z" fill="#003fc6" stroke="#003fc6" fill-opacity="1" stroke-opacity="1"/><path d="M1908,843L1831,993L2045,924Z" fill="#0038c6" stroke="#0038c6" fill-opacity="1" stroke-opacity="1"/><path d="M1908,843L2045,924L2027,866Z" fill="#003ac7" stroke="#003ac7" fill-opacity="1" stroke-opacity="1"/><path d="M-78,944L-91,1131L45,1110Z" fill="#7a88c3" stroke="#7a88c3" fill-opacity="1" stroke-opacity="1"/><path d="M-78,944L45,1110L68,997Z" fill="#768dc4" stroke="#768dc4" fill-opacity="1" stroke-opacity="1"/><path d="M68,997L45,1110L168,1118Z" fill="#6f82c4" stroke="#6f82c4" fill-opacity="1" stroke-opacity="1"/><path d="M68,997L168,1118L186,959Z" fill="#6b88c5" stroke="#6b88c5" fill-opacity="1" stroke-opacity="1"/><path d="M186,959L168,1118L321,1102Z" fill="#6380c6" stroke="#6380c6" fill-opacity="1" stroke-opacity="1"/><path d="M186,959L321,1102L326,959Z" fill="#5f86c6" stroke="#5f86c6" fill-opacity="1" stroke-opacity="1"/><path d="M326,959L321,1102L533,1027Z" fill="#557fc7" stroke="#557fc7" fill-opacity="1" stroke-opacity="1"/><path d="M533,1027L321,1102L561,1073Z" fill="#4e76c7" stroke="#4e76c7" fill-opacity="1" stroke-opacity="1"/><path d="M533,1027L561,1073L695,937Z" fill="#447ac8" stroke="#447ac8" fill-opacity="1" stroke-opacity="1"/><path d="M695,937L561,1073L664,1136Z" fill="#4073c9" stroke="#4073c9" fill-opacity="1" stroke-opacity="1"/><path d="M695,937L664,1136L781,1004Z" fill="#3b72c9" stroke="#3b72c9" fill-opacity="1" stroke-opacity="1"/><path d="M781,1004L664,1136L789,1179Z" fill="#3964c8" stroke="#3964c8" fill-opacity="1" stroke-opacity="1"/><path d="M781,1004L789,1179L981,1008Z" fill="#3264c8" stroke="#3264c8" fill-opacity="1" stroke-opacity="1"/><path d="M981,1008L789,1179L1016,1093Z" fill="#2d5bc8" stroke="#2d5bc8" fill-opacity="1" stroke-opacity="1"/><path d="M981,1008L1016,1093L1102,1027Z" fill="#265cc8" stroke="#265cc8" fill-opacity="1" stroke-opacity="1"/><path d="M1102,1027L1016,1093L1098,1185Z" fill="#2451c7" stroke="#2451c7" fill-opacity="1" stroke-opacity="1"/><path d="M1102,1027L1098,1185L1289,1169Z" fill="#1e48c7" stroke="#1e48c7" fill-opacity="1" stroke-opacity="1"/><path d="M1102,1027L1289,1169L1294,997Z" fill="#1a4dc7" stroke="#1a4dc7" fill-opacity="1" stroke-opacity="1"/><path d="M1294,997L1289,1169L1398,1091Z" fill="#1344c7" stroke="#1344c7" fill-opacity="1" stroke-opacity="1"/><path d="M1294,997L1398,1091L1409,980Z" fill="#114bc7" stroke="#114bc7" fill-opacity="1" stroke-opacity="1"/><path d="M1409,980L1398,1091L1526,1153Z" fill="#0c3ec6" stroke="#0c3ec6" fill-opacity="1" stroke-opacity="1"/><path d="M1409,980L1526,1153L1629,1023Z" fill="#073dc7" stroke="#073dc7" fill-opacity="1" stroke-opacity="1"/><path d="M1629,1023L1526,1153L1771,1079Z" fill="#0031c6" stroke="#0031c6" fill-opacity="1" stroke-opacity="1"/><path d="M1629,1023L1771,1079L1733,922Z" fill="#0038c6" stroke="#0038c6" fill-opacity="1" stroke-opacity="1"/><path d="M1733,922L1771,1079L1831,993Z" fill="#0035c6" stroke="#0035c6" fill-opacity="1" stroke-opacity="1"/><path d="M1831,993L1771,1079L1883,1080Z" fill="#002ac6" stroke="#002ac6" fill-opacity="1" stroke-opacity="1"/><path d="M1831,993L1883,1080L2045,924Z" fill="#002dc6" stroke="#002dc6" fill-opacity="1" stroke-opacity="1"/><path d="M2045,924L1883,1080L2084,1181Z" fill="#001ec5" stroke="#001ec5" fill-opacity="1" stroke-opacity="1"/><path d="M-91,1131L789,1179L168,1118Z" fill="#5e73c5" stroke="#5e73c5" fill-opacity="1" stroke-opacity="1"/><path d="M-91,1131L168,1118L45,1110Z" fill="#737dc4" stroke="#737dc4" fill-opacity="1" stroke-opacity="1"/><path d="M168,1118L789,1179L321,1102Z" fill="#526ec7" stroke="#526ec7" fill-opacity="1" stroke-opacity="1"/><path d="M321,1102L789,1179L664,1136Z" fill="#4468c7" stroke="#4468c7" fill-opacity="1" stroke-opacity="1"/><path d="M321,1102L664,1136L561,1073Z" fill="#4a6fc7" stroke="#4a6fc7" fill-opacity="1" stroke-opacity="1"/><path d="M789,1179L1098,1185L1016,1093Z" fill="#2b53c7" stroke="#2b53c7" fill-opacity="1" stroke-opacity="1"/><path d="M1098,1185L2084,1181L1289,1169Z" fill="#0933c6" stroke="#0933c6" fill-opacity="1" stroke-opacity="1"/><path d="M1289,1169L2084,1181L1526,1153Z" fill="#002ac5" stroke="#002ac5" fill-opacity="1" stroke-opacity="1"/><path d="M1289,1169L1526,1153L1398,1091Z" fill="#0e38c6" stroke="#0e38c6" fill-opacity="1" stroke-opacity="1"/><path d="M1526,1153L2084,1181L1771,1079Z" fill="#0020c6" stroke="#0020c6" fill-opacity="1" stroke-opacity="1"/><path d="M1771,1079L2084,1181L1883,1080Z" fill="#001cc5" stroke="#001cc5" fill-opacity="1" stroke-opacity="1"/></g></svg>